<svg xmlns="http://www.w3.org/2000/svg" version="1.1" xmlns:xlink="http://www.w3.org/1999/xlink" xmlns:svgjs="http://svgjs.com/svgjs" width="1440" height="560" preserveAspectRatio="none" viewBox="0 0 1440 560"><g mask="url(&quot;#SvgjsMask1522&quot;)" fill="none"><rect width="1440" height="560" x="0" y="0" fill="url(#SvgjsLinearGradient1523)"></rect><path d="M1440 0L1325.34 0L1440 126.91z" fill="rgba(255, 255, 255, .1)"></path><path d="M1325.34 0L1440 126.91L1440 224.25L900.1999999999999 0z" fill="rgba(255, 255, 255, .075)"></path><path d="M900.2 0L1440 224.25L1440 300.31L664.2900000000001 0z" fill="rgba(255, 255, 255, .05)"></path><path d="M664.2900000000001 0L1440 300.31L1440 408.81L422.8900000000001 0z" fill="rgba(255, 255, 255, .025)"></path><path d="M0 560L220.69 560L0 304.72z" fill="rgba(0, 0, 0, .1)"></path><path d="M0 304.72L220.69 560L503.34 560L0 251.3z" fill="rgba(0, 0, 0, .075)"></path><path d="M0 251.3L503.34 560L847.53 560L0 191.29000000000002z" fill="rgba(0, 0, 0, .05)"></path><path d="M0 191.29000000000002L847.53 560L1194.55 560L0 83.87000000000002z" fill="rgba(0, 0, 0, .025)"></path></g><defs><mask id="SvgjsMask1522"><rect width="1440" height="560" fill="#ffffff"></rect></mask><linearGradient x1="100%" y1="50%" x2="0%" y2="50%" gradientUnits="userSpaceOnUse" id="SvgjsLinearGradient1523"><stop stop-color="rgba(71, 134, 216, 1)" offset="0"></stop><stop stop-color="rgba(118, 175, 248, 1)" offset="1"></stop></linearGradient></defs></svg>